<?xml version="1.0" encoding="UTF-8"?>
<!-- Generator: Adobe Illustrator 25.2.0, SVG Export Plug-In . SVG Version: 6.00 Build 0)  -->
<svg version="1.1" id="Ebene_1" xmlns="http://www.w3.org/2000/svg" xmlns:xlink="http://www.w3.org/1999/xlink" x="0px" y="0px" viewBox="0 0 1110.35 179.04" style="enable-background:new 0 0 1110.35 179.04;" xml:space="preserve">
<style type="text/css">
	.st0{fill:#000000;}
</style>
<g>
	<path class="st0" d="M449.04,172.03c49.4,0,80.68-27.33,80.68-83.04V2.11h-40.47v88.45c0,29.17-14.98,44.15-39.68,44.15   c-24.7,0-39.68-15.51-39.68-45.46V2.11h-40.47V90.3C369.41,144.44,399.63,172.03,449.04,172.03L449.04,172.03z M83.83,103.7   c0,21.29-9.46,30.48-24.7,30.48c-12.88,0-23.13-6.83-33.64-18.4L0,144.17c12.61,14.98,31.54,27.59,60.18,27.59   c19.97,0,36.53-5.78,47.83-17.08c11.04-11.04,17.34-27.33,17.34-49.14V2.11H83.83V103.7L83.83,103.7z M339.36,2.09l-91.98,78.8   L155.4,2.09v48.62l91.98,78.78l91.98-78.78V2.09L339.36,2.09z M339.36,129.49h-91.98H155.4v40h183.96V129.49L339.36,129.49z"/>
	<path class="st0" d="M578.11,169.48h9.09v-41.3h-9.09V169.48L578.11,169.48z M595.93,169.48h8.97v-17.64c0-4.25,2.18-6.43,5.6-6.43   c3.42,0,5.43,2.18,5.43,6.43v17.64h8.97v-20.47c0-7.26-3.95-11.74-10.74-11.74c-4.54,0-7.2,2.42-9.26,5.07v-4.48h-8.97V169.48   L595.93,169.48z M642.68,170.01c3.01,0,5.19-0.71,7.08-1.83v-7.2c-1.3,0.71-2.77,1.12-4.42,1.12c-2.01,0-2.89-1-2.89-3.07v-13.51   h7.43v-7.67h-7.43v-8.08h-8.97v8.08h-3.78v7.67h3.78v14.99C633.47,167.83,637.19,170.01,642.68,170.01L642.68,170.01z    M670.5,170.19c5.72,0,9.97-2.24,12.92-5.9l-5.13-4.54c-2.48,2.3-4.66,3.24-7.67,3.24c-4.01,0-6.84-2.12-7.73-6.2h22.01   c0.06-0.83,0.12-1.65,0.12-2.36c0-8.97-4.84-17.17-15.4-17.17c-9.2,0-15.63,7.43-15.63,16.46v0.12   C653.98,163.52,661,170.19,670.5,170.19L670.5,170.19z M662.77,151.19c0.71-4.07,3.13-6.73,6.84-6.73c3.78,0,6.14,2.71,6.67,6.73   H662.77L662.77,151.19z M691.32,169.48h8.97v-43.07h-8.97V169.48L691.32,169.48z M708.24,169.48h8.97v-43.07h-8.97V169.48   L708.24,169.48z M724.95,134.38h9.44v-7.96h-9.44V134.38L724.95,134.38z M725.19,169.48h8.97v-31.62h-8.97V169.48L725.19,169.48z    M755.84,179.04c6.14,0,10.68-1.3,13.63-4.25c2.66-2.65,4.01-6.79,4.01-12.45v-24.48h-8.97v4.13c-2.42-2.65-5.31-4.72-10.21-4.72   c-7.26,0-14.04,5.31-14.04,14.75v0.12c0,9.38,6.67,14.75,14.04,14.75c4.78,0,7.67-1.95,10.32-5.13v1.53c0,5.66-2.89,8.61-9.03,8.61   c-4.19,0-7.43-1.06-10.68-2.89l-3.07,6.73C745.87,177.86,750.7,179.04,755.84,179.04L755.84,179.04z M756.9,159.45   c-4.37,0-7.67-2.95-7.67-7.32v-0.12c0-4.31,3.3-7.32,7.67-7.32c4.37,0,7.73,3.01,7.73,7.32v0.12   C764.63,156.44,761.26,159.45,756.9,159.45L756.9,159.45z M796.06,170.19c5.72,0,9.97-2.24,12.92-5.9l-5.13-4.54   c-2.48,2.3-4.66,3.24-7.67,3.24c-4.01,0-6.84-2.12-7.73-6.2h22.01c0.06-0.83,0.12-1.65,0.12-2.36c0-8.97-4.84-17.17-15.4-17.17   c-9.2,0-15.64,7.43-15.64,16.46v0.12C779.54,163.52,786.56,170.19,796.06,170.19L796.06,170.19z M788.33,151.19   c0.71-4.07,3.13-6.73,6.84-6.73c3.78,0,6.14,2.71,6.67,6.73H788.33L788.33,151.19z M816.6,169.48h8.97v-17.64   c0-4.25,2.18-6.43,5.61-6.43s5.43,2.18,5.43,6.43v17.64h8.97v-20.47c0-7.26-3.95-11.74-10.74-11.74c-4.54,0-7.2,2.42-9.26,5.07   v-4.48h-8.97V169.48L816.6,169.48z M867.72,170.19c6.31,0,9.85-2.42,12.92-5.78l-5.25-5.31c-2.18,2.06-4.25,3.36-7.26,3.36   c-4.9,0-8.02-3.89-8.02-8.73v-0.12c0-4.66,3.19-8.61,7.67-8.61c3.19,0,5.19,1.36,7.2,3.48l5.49-5.9c-2.95-3.3-6.67-5.31-12.63-5.31   c-9.68,0-16.58,7.43-16.58,16.46v0.12C851.26,162.88,858.22,170.19,867.72,170.19L867.72,170.19z M899.84,170.19   c5.72,0,9.97-2.24,12.92-5.9l-5.13-4.54c-2.48,2.3-4.66,3.24-7.67,3.24c-4.01,0-6.84-2.12-7.73-6.2h22.01   c0.06-0.83,0.12-1.65,0.12-2.36c0-8.97-4.84-17.17-15.4-17.17c-9.2,0-15.63,7.43-15.63,16.46v0.12   C883.32,163.52,890.34,170.19,899.84,170.19L899.84,170.19z M892.11,151.19c0.71-4.07,3.13-6.73,6.84-6.73   c3.78,0,6.14,2.71,6.67,6.73H892.11L892.11,151.19z"/>
	<path class="st0" d="M592.39,107.07c8.91,0,15.16-4.6,15.16-12.8v-0.12c0-7.2-4.72-10.21-13.1-12.39   c-7.14-1.83-8.91-2.71-8.91-5.43v-0.12c0-2.01,1.83-3.6,5.31-3.6c3.48,0,7.08,1.53,10.74,4.07l4.72-6.84   c-4.19-3.36-9.32-5.25-15.34-5.25c-8.44,0-14.46,4.96-14.46,12.45v0.12c0,8.2,5.37,10.5,13.69,12.63c6.9,1.77,8.32,2.95,8.32,5.25   v0.12c0,2.42-2.24,3.89-5.96,3.89c-4.72,0-8.61-1.95-12.33-5.02l-5.37,6.43C579.82,104.89,586.13,107.07,592.39,107.07   L592.39,107.07z M625.83,96.39l-7.2-21.54h-9.5l12.39,31.74c-0.77,1.59-1.59,2.06-3.13,2.06c-1.18,0-2.65-0.53-3.83-1.24   l-3.01,6.49c2.3,1.36,4.72,2.18,7.97,2.18c5.37,0,7.97-2.42,10.38-8.85l12.15-32.39h-9.32L625.83,96.39L625.83,96.39z    M646.34,106.48h8.97V88.84c0-4.25,2.07-6.43,5.43-6.43s5.25,2.18,5.25,6.43v17.64h8.97V88.84c0-4.25,2.06-6.43,5.43-6.43   c3.36,0,5.25,2.18,5.25,6.43v17.64h8.97V85.89c0-7.61-4.01-11.62-10.68-11.62c-4.31,0-7.61,1.77-10.38,5.01   c-1.65-3.19-4.78-5.01-8.91-5.01c-4.54,0-7.26,2.42-9.32,5.07v-4.48h-8.97V106.48L646.34,106.48z M721.01,107.07   c7.49,0,14.4-5.78,14.4-16.34v-0.12c0-10.56-7.02-16.34-14.4-16.34c-4.66,0-7.67,2.18-9.85,5.13V63.41h-8.97v43.07h8.97v-4.13   C713.28,104.89,716.23,107.07,721.01,107.07L721.01,107.07z M718.71,99.46c-4.19,0-7.67-3.48-7.67-8.73v-0.12   c0-5.25,3.48-8.73,7.67-8.73s7.73,3.48,7.73,8.73v0.12C726.44,96.04,722.9,99.46,718.71,99.46L718.71,99.46z M756.95,107.19   c9.85,0,17.17-7.37,17.17-16.46v-0.12c0-9.09-7.26-16.34-17.05-16.34c-9.85,0-17.17,7.38-17.17,16.46v0.12   C739.9,99.93,747.15,107.19,756.95,107.19L756.95,107.19z M757.07,99.46c-4.96,0-8.32-4.07-8.32-8.73v-0.12   c0-4.66,3.07-8.61,8.2-8.61c4.96,0,8.32,4.07,8.32,8.73v0.12C765.27,95.51,762.2,99.46,757.07,99.46L757.07,99.46z M780.34,106.48   h8.97V63.41h-8.97V106.48L780.34,106.48z M797.05,71.38h9.44v-7.97h-9.44V71.38L797.05,71.38z M797.29,106.48h8.97V74.86h-8.97   V106.48L797.29,106.48z M828.76,107.19c6.31,0,9.85-2.42,12.92-5.78l-5.25-5.31c-2.18,2.07-4.25,3.36-7.26,3.36   c-4.9,0-8.02-3.89-8.02-8.73v-0.12c0-4.66,3.19-8.61,7.67-8.61c3.19,0,5.19,1.36,7.2,3.48l5.49-5.9c-2.95-3.3-6.67-5.31-12.63-5.31   c-9.68,0-16.58,7.43-16.58,16.46v0.12C812.3,99.88,819.26,107.19,828.76,107.19L828.76,107.19z M862.63,106.48h9.26l3.78-9.26   h17.46l3.78,9.26h9.5l-17.7-41.6h-8.38L862.63,106.48L862.63,106.48z M878.91,89.2l5.49-13.39l5.49,13.39H878.91L878.91,89.2z    M911.05,106.48h8.97V94.8c0-7.55,3.66-11.15,9.62-11.15h0.47v-9.38c-5.31-0.24-8.26,2.6-10.09,6.96v-6.37h-8.97V106.48   L911.05,106.48z M946.38,107.01c3.01,0,5.19-0.71,7.08-1.83v-7.2c-1.3,0.71-2.77,1.12-4.42,1.12c-2.01,0-2.89-1-2.89-3.07V82.53   h7.43v-7.67h-7.43v-8.08h-8.97v8.08h-3.78v7.67h3.78v14.99C937.18,104.83,940.9,107.01,946.38,107.01L946.38,107.01z M959.91,71.38   h9.44v-7.97h-9.44V71.38L959.91,71.38z M960.15,106.48h8.97V74.86h-8.97V106.48L960.15,106.48z M978.74,106.48h8.97V82.53h7.14   v-7.32h-7.26v-1.24c0-2.36,1.18-3.42,3.24-3.42c1.53,0,2.77,0.3,4.07,0.77v-7.43c-1.65-0.53-3.54-0.89-6.37-0.89   c-3.19,0-5.61,0.83-7.26,2.48c-1.65,1.65-2.54,4.19-2.54,7.67v2.01h-3.72v7.38h3.72V106.48L978.74,106.48z M1000.16,106.48h8.97   V74.86h-8.97V106.48L1000.16,106.48z M999.93,71.38h9.44v-7.97h-9.44V71.38L999.93,71.38z M1032.02,107.19   c6.32,0,9.86-2.42,12.92-5.78l-5.25-5.31c-2.18,2.07-4.24,3.36-7.25,3.36c-4.9,0-8.03-3.89-8.03-8.73v-0.12   c0-4.66,3.19-8.61,7.67-8.61c3.19,0,5.19,1.36,7.2,3.48l5.49-5.9c-2.95-3.3-6.67-5.31-12.63-5.31c-9.67,0-16.58,7.43-16.58,16.46   v0.12C1015.56,99.88,1022.52,107.19,1032.02,107.19L1032.02,107.19z M1049.68,71.38h9.44v-7.97h-9.44V71.38L1049.68,71.38z    M1049.92,106.48h8.97V74.86h-8.97V106.48L1049.92,106.48z M1075.51,107.07c4.36,0,7.37-1.59,9.55-4.01v3.42h8.68V88.13   c0-4.25-1.07-7.73-3.43-10.09c-2.24-2.24-5.78-3.54-10.67-3.54c-5.37,0-8.8,1-12.28,2.54l2.25,6.84c2.89-1.06,5.31-1.71,8.73-1.71   c4.48,0,6.78,2.07,6.78,5.78v0.53c-2.24-0.77-4.54-1.3-7.73-1.3c-7.49,0-12.74,3.19-12.74,10.09v0.12   C1064.65,103.65,1069.55,107.07,1075.51,107.07L1075.51,107.07z M1078.22,100.88c-2.89,0-4.9-1.42-4.9-3.83v-0.12   c0-2.83,2.36-4.37,6.2-4.37c2.18,0,4.19,0.47,5.72,1.18v1.59C1085.24,98.58,1082.41,100.88,1078.22,100.88L1078.22,100.88z    M1101.38,106.48h8.97V63.41h-8.97V106.48L1101.38,106.48z"/>
	<path class="st0" d="M578.11,43.48h9.09V2.18h-9.09V43.48L578.11,43.48z M595.93,43.48h8.97V25.84c0-4.25,2.18-6.43,5.6-6.43   c3.42,0,5.43,2.18,5.43,6.43v17.64h8.97V23.01c0-7.26-3.95-11.74-10.74-11.74c-4.54,0-7.2,2.42-9.26,5.07v-4.48h-8.97V43.48   L595.93,43.48z M643.33,44.07c6.84,0,12.1-3.19,12.1-10.21v-0.12c0-5.78-5.13-7.91-9.56-9.38c-3.42-1.18-6.43-2.01-6.43-3.78v-0.12   c0-1.24,1.12-2.18,3.3-2.18c2.3,0,5.43,1.12,8.56,2.95l3.42-6.19c-3.42-2.3-7.79-3.66-11.8-3.66c-6.37,0-11.56,3.6-11.56,10.03   v0.12c0,6.14,5.02,8.2,9.44,9.5c3.48,1.06,6.55,1.71,6.55,3.66v0.12c0,1.42-1.18,2.36-3.78,2.36c-2.95,0-6.55-1.3-9.97-3.78   l-3.84,5.9C633.95,42.6,638.91,44.07,643.33,44.07L643.33,44.07z M671.76,44.01c3.01,0,5.19-0.71,7.08-1.83v-7.2   c-1.3,0.71-2.77,1.12-4.42,1.12c-2.01,0-2.89-1-2.89-3.07V19.53h7.43v-7.67h-7.43V3.78h-8.97v8.08h-3.78v7.67h3.78v14.99   C662.56,41.83,666.28,44.01,671.76,44.01L671.76,44.01z M685.29,8.38h9.44V0.41h-9.44V8.38L685.29,8.38z M685.53,43.48h8.97V11.86   h-8.97V43.48L685.53,43.48z M712.92,44.01c3.01,0,5.19-0.71,7.08-1.83v-7.2c-1.3,0.71-2.77,1.12-4.42,1.12   c-2.01,0-2.89-1-2.89-3.07V19.53h7.43v-7.67h-7.43V3.78h-8.97v8.08h-3.78v7.67h3.78v14.99C703.72,41.83,707.44,44.01,712.92,44.01   L712.92,44.01z M736.9,44.07c4.54,0,7.2-2.42,9.26-5.07v4.48h8.97V11.86h-8.97V29.5c0,4.25-2.18,6.43-5.61,6.43   s-5.43-2.18-5.43-6.43V11.86h-8.97v20.47C726.16,39.59,730.11,44.07,736.9,44.07L736.9,44.07z M773.56,44.01   c3.01,0,5.19-0.71,7.08-1.83v-7.2c-1.3,0.71-2.77,1.12-4.42,1.12c-2.01,0-2.89-1-2.89-3.07V19.53h7.43v-7.67h-7.43V3.78h-8.97v8.08   h-3.78v7.67h3.78v14.99C764.35,41.83,768.07,44.01,773.56,44.01L773.56,44.01z M806.59,43.48h8.97V19.53h7.14v-7.32h-7.26v-1.24   c0-2.36,1.18-3.42,3.25-3.42c1.53,0,2.77,0.29,4.07,0.77V0.89C821.11,0.35,819.22,0,816.39,0c-3.19,0-5.61,0.83-7.26,2.48   c-1.65,1.65-2.54,4.19-2.54,7.67v2.01h-3.72v7.38h3.72V43.48L806.59,43.48z M837.55,44.07c4.54,0,7.2-2.42,9.26-5.07v4.48h8.97   V11.86h-8.97V29.5c0,4.25-2.18,6.43-5.61,6.43s-5.43-2.18-5.43-6.43V11.86h-8.97v20.47C826.81,39.59,830.77,44.07,837.55,44.07   L837.55,44.07z M843.1,8.38h8.61V0.41h-8.61V8.38L843.1,8.38z M830.82,8.38h8.61V0.41h-8.61V8.38L830.82,8.38z M863.43,43.48h8.97   V31.8c0-7.55,3.66-11.15,9.62-11.15h0.47v-9.38c-5.31-0.24-8.26,2.6-10.09,6.96v-6.37h-8.97V43.48L863.43,43.48z"/>
</g>
</svg>
